<svg xmlns="http://www.w3.org/2000/svg" enable-background="new 0 0 1024 1024" viewBox="0 0 1024 1024" id="light-rain-shower">
  <path d="M447,192h-30v-48h30V192z M241.77,875.26l28.46,9.49l16-48l-28.46-9.49L241.77,875.26z M817.77,875.26l28.46,9.49l16-48
	l-28.46-9.49L817.77,875.26z M625.77,875.26l28.46,9.49l16-48l-28.46-9.49L625.77,875.26z M433.77,875.26l28.46,9.49l16-48
	l-28.46-9.49L433.77,875.26z M128,463h48v-30h-48V463z M261.59,256.37l-33.94-33.94l-21.21,21.21l33.94,33.94L261.59,256.37z
	 M657.57,243.65l-21.21-21.21l-33.94,33.94l21.21,21.21L657.57,243.65z M576,417v30c62.31,0,113,50.69,113,113h30
	C719,481.15,654.85,417,576,417z M911,640c0,78.85-64.15,143-143,143H384c-78.85,0-143-64.15-143-143
	c0-30.09,9.24-58.87,26.72-83.23C246.27,524.53,235,487.21,235,448c0-108.63,88.37-197,197-197c65.62,0,126.87,32.93,163.31,86.84
	c1.8,0.16,3.59,0.32,5.38,0.52c7.14,0.78,14.36,1.93,21.43,3.42c80.81,17,145.85,78.05,168.35,156.98
	c31.55,4.98,60.51,20.4,82.45,44.09C897.48,569.36,911,603.86,911,640z M881,640c0-58.42-45.54-107.89-103.69-112.62
	c-6.5-0.53-11.91-5.19-13.39-11.54c-16.97-72.57-75.05-129.37-147.97-144.71c-6.11-1.29-12.35-2.28-18.54-2.96
	C590.34,367.4,583.14,367,576,367c-90.15,0-167.43,61.21-187.92,148.85c-1.48,6.34-6.89,11.01-13.39,11.54
	c-23.2,1.89-44.93,10.77-62.86,25.67c-7.42,6.17-14.02,13.25-19.63,21.05C278.33,593.38,271,616.16,271,640
	c0,62.31,50.69,113,113,113h384C830.31,753,881,702.31,881,640z"></path>
</svg>
