<svg xmlns="http://www.w3.org/2000/svg" width="24" height="24" fill="none" viewBox="0 0 24 24" id="moon-cloud-mid-rain">
  <path fill="#111" fill-rule="evenodd" d="M5.85283 9.37231C3.22583 9.90506 1.25 12.2294 1.25 15.0152C1.25 17.2064 2.46604 18.6962 4.12633 19.6503L4.87367 18.3497C3.54496 17.5862 2.75 16.5309 2.75 15.0152C2.75 12.801 4.43728 10.9823 6.59158 10.7769C6.7258 10.7642 6.86203 10.7576 7 10.7576C7.77513 10.7576 8.49973 10.9648 9.12403 11.3265L9.87597 10.0286C9.14139 9.60298 8.304 9.33547 7.41172 9.27215C7.95496 7.24318 9.80434 5.75001 12 5.75001C14.6223 5.75001 16.75 7.87932 16.75 10.5083C16.75 10.6547 16.7434 10.7993 16.7306 10.9419C16.6597 11.7302 16.397 12.4624 15.9892 13.0926L17.2486 13.9075C17.6564 13.2772 17.9542 12.5686 18.1146 11.8093C19.8926 12.1031 21.25 13.6499 21.25 15.5159C21.25 16.8391 20.4663 17.6838 19.1669 18.3281L19.8331 19.672C21.3852 18.9025 22.75 17.6492 22.75 15.5159C22.75 12.8675 20.7934 10.675 18.247 10.3119C18.1434 6.94742 15.3872 4.25001 12 4.25001C8.9347 4.25001 6.38668 6.45874 5.85283 9.37231Z" clip-rule="evenodd"></path>
  <path fill="#111" fill-rule="evenodd" d="M12.0775 11.9541 13.6004 13.5358C14.4698 14.3912 14.4665 15.7945 13.5905 16.6458L13.5764 16.6596 13.5616 16.6725C13.1485 17.0339 12.6433 17.25 12.0434 17.25 11.4464 17.25 10.8423 17.0069 10.4131 16.5898 9.53632 15.7377 9.53602 14.3656 10.3707 13.5117L10.3858 13.4963 12.0775 11.9541ZM11.4311 14.5731C11.1832 14.8397 11.1873 15.2506 11.4586 15.5142 11.6056 15.6571 11.8338 15.75 12.0434 15.75 12.2436 15.75 12.4005 15.6902 12.5582 15.5571 12.8182 15.2905 12.8139 14.863 12.5451 14.6019L12.5362 14.5932 12.0094 14.046 11.4311 14.5731ZM8.57754 17.4541 10.1004 19.0358C10.9698 19.8912 10.9665 21.2945 10.0905 22.1458L10.0764 22.1596 10.0616 22.1725C9.64845 22.5339 9.14334 22.75 8.54345 22.75 7.94636 22.75 7.3423 22.5069 6.91314 22.0898 6.03632 21.2377 6.03602 19.8656 6.87069 19.0117L6.88578 18.9963 8.57754 17.4541ZM15.5775 17.4541 17.1004 19.0358C17.9698 19.8912 17.9665 21.2945 17.0905 22.1458L17.0764 22.1596 17.0616 22.1725C16.6485 22.5339 16.1433 22.75 15.5434 22.75 14.9464 22.75 14.3423 22.5069 13.9131 22.0898 13.0363 21.2377 13.036 19.8656 13.8707 19.0117L13.8858 18.9963 15.5775 17.4541ZM7.9311 20.0731C7.68324 20.3397 7.68733 20.7506 7.95856 21.0142 8.10562 21.1571 8.33382 21.25 8.54345 21.25 8.74356 21.25 8.90052 21.1902 9.05821 21.0571 9.31822 20.7905 9.31386 20.363 9.04513 20.1019L9.03619 20.0932 8.50935 19.546 7.9311 20.0731ZM14.9311 20.0731C14.6832 20.3397 14.6873 20.7506 14.9586 21.0142 15.1056 21.1571 15.3338 21.25 15.5434 21.25 15.7436 21.25 15.9005 21.1902 16.0582 21.0571 16.3182 20.7905 16.3139 20.363 16.0451 20.1019L16.0362 20.0932 15.5094 19.546 14.9311 20.0731ZM2.75445 6.09999C2.78078 6.60839 2.92336 7.11789 3.1926 7.58882 3.96233 8.93512 5.51991 9.52887 6.92918 9.12559L7.34186 10.5677C5.27816 11.1583 3.00791 10.2879 1.89041 8.33333 1.24283 7.20066 1.10243 5.9123 1.39687 4.7391 1.45827 4.49443 1.63856 4.29702 1.87668 4.21373 2.11479 4.13044 2.37882 4.17244 2.57935 4.32549 3.32306 4.89313 4.3568 4.98852 5.21122 4.49038 6.06719 3.99133 6.50706 3.03367 6.39114 2.09161 6.36042 1.84198 6.45687 1.59358 6.64799 1.43009 6.83911 1.2666 7.09946 1.20979 7.34132 1.2788 8.49992 1.60939 9.53682 2.37929 10.1846 3.51232 10.4549 3.98515 10.6374 4.48618 10.7362 4.9953L9.26376 5.2813C9.19569 4.93083 9.07004 4.58499 8.88241 4.25682 8.61546 3.78991 8.25438 3.41395 7.83765 3.13852 7.6309 4.21143 6.9825 5.194 5.96672 5.78622 4.9511 6.37836 3.78165 6.45551 2.75445 6.09999Z" clip-rule="evenodd"></path>
</svg>
