<svg xmlns="http://www.w3.org/2000/svg" width="128" height="128" fill="none" viewBox="0 0 128 128" id="rainy">
  <path stroke="#000" stroke-linecap="round" stroke-width="6" d="M42.0705 45.2162C45.2607 36.3443 53.7494 30 63.72 30C73.246 30 81.4194 35.7912 84.9115 44.045C85.211 44.7528 85.8584 45.257 86.6154 45.3895C95.0384 46.8644 101.44 54.2146 101.44 63.06C101.44 72.8176 93.6499 80.7558 83.9497 80.9945C83.9002 80.9981 83.8503 81 83.7999 81M42.0705 45.2162C33.041 46.1512 26 53.7833 26 63.06C26 72.8175 33.7899 80.7556 43.49 80.9945C43.5395 80.9981 43.5895 81 43.6399 81M42.0705 45.2162C44.2136 44.9775 49 44.5 53 49.5"></path>
  <path stroke="#000" stroke-linecap="round" stroke-linejoin="round" stroke-width="6" d="M69 79L60.5 92.5M49.5 91L45 98M78.5 90.5L74 97.5"></path>
</svg>
