<svg xmlns="http://www.w3.org/2000/svg" width="24" height="24" fill="none" viewBox="0 0 24 24" id="sun-cloud-snow">
  <path fill="#111" fill-rule="evenodd" d="M6.22917 1.03534C6.76207 0.890319 7.31164 1.20476 7.45666 1.73766L7.47377 1.80053C8.44494 1.70339 9.40206 1.83763 10.278 2.1656L10.4026 1.95256C10.6815 1.47585 11.294 1.31548 11.7707 1.59435C12.2474 1.87323 12.4078 2.48574 12.1289 2.96245L12.0146 3.15789C12.3367 3.41872 12.6333 3.71247 12.8984 4.03585C13.2486 4.46294 13.1862 5.09303 12.7591 5.44318C12.332 5.79334 11.702 5.73096 11.3518 5.30387C11.0296 4.91091 10.6378 4.58212 10.1995 4.33103C10.192 4.3269 10.1846 4.32268 10.1772 4.31835C10.1769 4.3182 10.1774 4.31849 10.1772 4.31835C9.25084 3.79527 8.11989 3.61737 7.00392 3.9118C5.88306 4.20751 4.99603 4.91984 4.4636 5.83017C3.93199 6.73907 3.75387 7.84535 4.04943 8.93139C4.19755 9.47568 4.44951 9.96345 4.7788 10.3813C5.12062 10.8151 5.04607 11.4439 4.61229 11.7857C4.1785 12.1275 3.54974 12.053 3.20791 11.6192C2.91407 11.2463 2.66148 10.8359 2.45875 10.3933L2.38022 10.414C1.84621 10.5549 1.29909 10.2362 1.15821 9.70219C1.01732 9.16818 1.33601 8.62106 1.87003 8.48018L1.93571 8.46285C1.84123 7.51614 1.97535 6.58523 2.30001 5.73251L2.09445 5.61538C1.6146 5.34196 1.44725 4.73131 1.72067 4.25146C1.99409 3.7716 2.60474 3.60425 3.08459 3.87767L3.3084 4.0052C3.89917 3.29278 4.65635 2.70726 5.54056 2.31324L5.52685 2.26284C5.38182 1.72993 5.69626 1.18037 6.22917 1.03534Z" clip-rule="evenodd"></path>
  <path fill="#111" d="M17.1249 16C17.1249 16.5523 16.6772 17 16.1249 17 15.5726 17 15.1249 16.5523 15.1249 16 15.1249 15.4477 15.5726 15 16.1249 15 16.6772 15 17.1249 15.4477 17.1249 16ZM9.12488 16C9.12488 16.5523 8.67716 17 8.12488 17 7.57259 17 7.12488 16.5523 7.12488 16 7.12488 15.4477 7.57259 15 8.12488 15 8.67716 15 9.12488 15.4477 9.12488 16ZM9.12488 20C9.12488 20.5523 8.67716 21 8.12488 21 7.57259 21 7.12488 20.5523 7.12488 20 7.12488 19.4477 7.57259 19 8.12488 19 8.67716 19 9.12488 19.4477 9.12488 20ZM13.1249 18C13.1249 18.5523 12.6772 19 12.1249 19 11.5726 19 11.1249 18.5523 11.1249 18 11.1249 17.4477 11.5726 17 12.1249 17 12.6772 17 13.1249 17.4477 13.1249 18ZM17.1249 20C17.1249 20.5523 16.6772 21 16.1249 21 15.5726 21 15.1249 20.5523 15.1249 20 15.1249 19.4477 15.5726 19 16.1249 19 16.6772 19 17.1249 19.4477 17.1249 20ZM13.1249 22C13.1249 22.5523 12.6772 23 12.1249 23 11.5726 23 11.1249 22.5523 11.1249 22 11.1249 21.4477 11.5726 21 12.1249 21 12.6772 21 13.1249 21.4477 13.1249 22Z"></path>
  <path fill="#111" d="M6.06419 8.96783C6.01478 9.16384 5.99008 9.26184 5.9336 9.3197C5.87712 9.37755 5.77912 9.40476 5.58313 9.45919C3.15594 10.1332 1.37488 12.3583 1.37488 15C1.37488 17.4786 2.94317 19.5909 5.14158 20.3988C5.20941 20.4237 5.24332 20.4362 5.26622 20.4408C5.44609 20.4766 5.59289 20.3742 5.62127 20.193C5.62488 20.1699 5.62488 20.1133 5.62488 20C5.62488 19.4692 5.7903 18.977 6.0724 18.5723C6.2945 18.2536 6.40555 18.0942 6.40555 18C6.40555 17.9058 6.2945 17.7464 6.0724 17.4277C5.7903 17.023 5.62488 16.5308 5.62488 16C5.62488 14.6193 6.74417 13.5 8.12488 13.5C9.08865 13.5 9.92505 14.0454 10.3423 14.8443C10.5984 15.3346 10.7264 15.5798 10.8132 15.6232C10.9 15.6666 11.1729 15.622 11.7187 15.5328C11.8509 15.5112 11.9866 15.5 12.1249 15.5C12.2632 15.5 12.3988 15.5112 12.531 15.5328C13.0769 15.622 13.3498 15.6666 13.4366 15.6232C13.5234 15.5798 13.6514 15.3346 13.9074 14.8443C14.3247 14.0454 15.1611 13.5 16.1249 13.5C17.5056 13.5 18.6249 14.6193 18.6249 16C18.6249 16.5308 18.4595 17.023 18.1774 17.4277C17.9553 17.7464 17.8442 17.9058 17.8442 18C17.8442 18.0942 17.9553 18.2536 18.1774 18.5723C18.4595 18.977 18.6249 19.4692 18.6249 20C18.6249 20.2285 18.6249 20.3428 18.6491 20.3993C18.6954 20.5076 18.7774 20.5679 18.8946 20.5798C18.9558 20.586 19.0352 20.5612 19.194 20.5115C21.327 19.8443 22.8749 17.8529 22.8749 15.5C22.8749 13.0285 21.1671 10.9559 18.8672 10.3979C18.6238 10.3388 18.5021 10.3093 18.4396 10.2383C18.3771 10.1673 18.3634 10.0446 18.336 9.79924C17.9877 6.67731 15.3398 4.25 12.1249 4.25C9.20159 4.25 6.7476 6.25653 6.06419 8.96783Z"></path>
</svg>
