<svg id="SvgjsSvg1013" width="288" height="288" xmlns="http://www.w3.org/2000/svg" version="1.1" xmlns:xlink="http://www.w3.org/1999/xlink" xmlns:svgjs="http://svgjs.com/svgjs"><rect id="SvgjsRect1028" width="288" height="288" rx="20" ry="20" transform="matrix(0.7916,0,0,0.7916,30.009600000000006,30.009600000000006)" fill="#ffffff"></rect><defs id="SvgjsDefs1014"></defs><g id="SvgjsG1015" transform="matrix(0.4652,0,0,0.4652,77.00963524322509,77.01119234962464)"><svg xmlns="http://www.w3.org/2000/svg" viewBox="0 0 24 24" width="288" height="288"><path fill="#000000" d="M6.06431 9.09283C6.01491 9.28884 5.9902 9.38684 5.93372 9.4447C5.87724 9.50255 5.77924 9.52976 5.58325 9.58419C3.15606 10.2582 1.375 12.4833 1.375 15.125C1.375 16.8792 2.16055 18.45 3.39906 19.5046C3.66956 19.735 3.80481 19.8502 3.94501 19.8244C4.08521 19.7986 4.19944 19.5905 4.42789 19.1741C4.77629 18.5392 5.39238 18.072 6.12424 17.9244C6.34063 17.8808 6.44883 17.8589 6.50414 17.8164C6.54586 17.7842 6.56702 17.7584 6.59027 17.7111C6.62109 17.6485 6.62109 17.5573 6.62109 17.375C6.62109 15.9943 7.74038 14.875 9.12109 14.875C9.28471 14.875 9.36652 14.875 9.40898 14.8622C9.51798 14.8292 9.57638 14.7708 9.60933 14.6618C9.62217 14.6194 9.62217 14.5532 9.62217 14.4208V14.375C9.62217 12.9943 10.7415 11.875 12.1222 11.875C13.5029 11.875 14.6222 12.9943 14.6222 14.375V14.4226C14.6222 14.5534 14.6222 14.6188 14.6347 14.6608C14.6675 14.7707 14.7265 14.8297 14.8364 14.8625C14.8784 14.875 14.9593 14.875 15.1211 14.875C16.5018 14.875 17.6211 15.9943 17.6211 17.375C17.6211 17.5573 17.6211 17.6485 17.6519 17.7111C17.6752 17.7584 17.6963 17.7842 17.7381 17.8164C17.7934 17.859 17.9015 17.8808 18.1179 17.9244C18.908 18.0837 19.5631 18.6155 19.8923 19.3287C20.0973 19.7729 20.1998 19.995 20.3422 20.0285C20.4846 20.062 20.626 19.9485 20.909 19.7213C22.1076 18.7591 22.875 17.2817 22.875 15.625C22.875 13.1535 21.1672 11.0809 18.8673 10.5229C18.6239 10.4638 18.5022 10.4343 18.4397 10.3633C18.3772 10.2923 18.3635 10.1696 18.3362 9.92424C17.9878 6.80231 15.3399 4.375 12.125 4.375C9.20171 4.375 6.74772 6.38153 6.06431 9.09283Z" class="svgShape color08aee9-0 selectable"></path><path fill="#000000" fill-rule="evenodd" d="M12.1218 13.375C12.6741 13.375 13.1218 13.8227 13.1218 14.375V15.875C13.1218 16.4272 12.6741 16.875 12.1218 16.875C11.5695 16.875 11.1218 16.4272 11.1218 15.875V14.375C11.1218 13.8227 11.5695 13.375 12.1218 13.375ZM9.12073 16.375C9.67301 16.375 10.1207 16.8227 10.1207 17.375V18.875C10.1207 19.4273 9.67301 19.875 9.12073 19.875C8.56844 19.875 8.12073 19.4273 8.12073 18.875V17.375C8.12073 16.8227 8.56844 16.375 9.12073 16.375ZM15.1207 16.375C15.673 16.375 16.1207 16.8227 16.1207 17.375V18.875C16.1207 19.4273 15.673 19.875 15.1207 19.875C14.5684 19.875 14.1207 19.4273 14.1207 18.875V17.375C14.1207 16.8227 14.5684 16.375 15.1207 16.375ZM6.62073 19.375C7.17301 19.375 7.62073 19.8227 7.62073 20.375V21.875C7.62073 22.4273 7.17301 22.875 6.62073 22.875C6.06844 22.875 5.62073 22.4273 5.62073 21.875V20.375C5.62073 19.8227 6.06844 19.375 6.62073 19.375ZM12.1207 19.375C12.673 19.375 13.1207 19.8227 13.1207 20.375V21.875C13.1207 22.4273 12.673 22.875 12.1207 22.875C11.5684 22.875 11.1207 22.4273 11.1207 21.875V20.375C11.1207 19.8227 11.5684 19.375 12.1207 19.375ZM17.6207 19.375C18.173 19.375 18.6207 19.8227 18.6207 20.375V21.875C18.6207 22.4273 18.173 22.875 17.6207 22.875C17.0684 22.875 16.6207 22.4273 16.6207 21.875V20.375C16.6207 19.8227 17.0684 19.375 17.6207 19.375Z" clip-rule="evenodd" class="svgShape colorb620fe-1 selectable"></path><path fill="#000000" d="M7.4563 1.86266C7.31127 1.32976 6.7617 1.01532 6.2288 1.16034C5.6959 1.30537 5.38146 1.85493 5.52648 2.38784L5.54019 2.43824C4.65599 2.83226 3.89881 3.41778 3.30803 4.1302L3.08423 4.00267C2.60437 3.72925 1.99372 3.8966 1.7203 4.37646C1.44688 4.85631 1.61423 5.46696 2.09409 5.74038L2.29964 5.85751C1.97498 6.71023 1.84087 7.64114 1.93534 8.58785L1.86966 8.60518C1.33565 8.74606 1.01696 9.29318 1.15784 9.82719C1.29873 10.3612 1.84584 10.6799 2.37985 10.539L2.45839 10.5183C2.5773 10.7779 2.71337 11.0264 2.86485 11.2628C3.31677 10.7648 3.85484 10.3464 4.45558 10.031C4.28197 9.73178 4.14413 9.40573 4.04906 9.05639C3.75351 7.97035 3.93163 6.86407 4.46323 5.95517C4.99567 5.04484 5.88269 4.33251 7.00355 4.0368C8.11952 3.74237 9.24972 3.91983 10.1761 4.44291C10.1835 4.44724 10.1917 4.4519 10.1991 4.45603C10.2811 4.50296 10.3614 4.55261 10.4399 4.60489C10.9758 4.45525 11.5408 4.37524 12.1245 4.37524C12.4431 4.37524 12.7561 4.39908 13.0619 4.44507C13.0244 4.34457 12.9699 4.24844 12.8981 4.16085C12.633 3.83747 12.3364 3.54372 12.0142 3.28289L12.1286 3.08745C12.4074 2.61074 12.2471 1.99823 11.7704 1.71935C11.2937 1.44048 10.6811 1.60085 10.4023 2.07756L10.2776 2.2906C9.4017 1.96263 8.44458 1.82839 7.4734 1.92553L7.4563 1.86266Z" class="svgShape colorb620fe-2 selectable"></path></svg></g></svg>