<svg xmlns="http://www.w3.org/2000/svg" xml:space="preserve" style="enable-background:new 0 0 24 24" viewBox="0 0 24 24" id="sunrise">
  <g id="Icons">
    <g>
      <path d="M12 12c-3.308594 0-6 2.691406-6 6 0 .684692.121033 1.349487.342712 1.97998H4c-.552734 0-1 .447754-1 1s.447266 1 1 1h3.990234 8.019531H20c.552734 0 1-.447754 1-1s-.447266-1-1-1h-2.342712C17.878967 19.349487 18 18.684692 18 18 18 14.691406 15.308594 12 12 12zM8.527344 19.97998C8.180664 19.379395 8 18.703613 8 18c0-2.205566 1.793945-4 4-4s4 1.794434 4 4c0 .703613-.180664 1.379395-.527344 1.97998H8.527344zM13 10V9c0-.552246-.447266-1-1-1s-1 .447754-1 1v1c0 .552246.447266 1 1 1S13 10.552246 13 10zM17.657227 10.929199l-.707031.707031c-.390625.390625-.390625 1.023438 0 1.414062.195312.195312.451172.292969.707031.292969s.511719-.097656.707031-.292969l.707031-.707031c.390625-.390625.390625-1.023438 0-1.414062S18.047852 10.538574 17.657227 10.929199z"></path>
      <path d="M20 19h1c.552734 0 1-.447754 1-1s-.447266-1-1-1h-1c-.552734 0-1 .447754-1 1S19.447266 19 20 19zM4 19c.552734 0 1-.447754 1-1s-.447266-1-1-1H3c-.552734 0-1 .447754-1 1s.447266 1 1 1H4zM7.049805 13.050293c.390625-.390625.390625-1.023438 0-1.414062l-.707031-.707031c-.390625-.390625-1.023438-.390625-1.414062 0s-.390625 1.023438 0 1.414062l.707031.707031c.195312.195312.451172.292969.707031.292969S6.854492 13.245605 7.049805 13.050293zM12.751953 2.294922c-.388672-.391113-1.018555-.394531-1.410156-.007812l-2.032227 2C8.916016 4.674805 8.910156 5.307617 9.297852 5.70166 9.494141 5.900391 9.751953 6 10.010742 6c.25293 0 .506836-.095703.701172-.287109l1.323242-1.302246 1.288086 1.294434c.388672.39209 1.021484.392578 1.414062.003906.391602-.389648.393555-1.022461.003906-1.414062L12.751953 2.294922z"></path>
    </g>
  </g>
</svg>
